<svg width="60" height="53" viewBox="0 0 60 53" fill="none" xmlns="http://www.w3.org/2000/svg">
<path opacity="0.548571" d="M60 42.7514C60 43.999 59.3368 45.2343 58.0483 46.387C56.7598 47.5396 54.8712 48.5869 52.4903 49.469C50.1095 50.3512 47.283 51.051 44.1722 51.5284C41.0615 52.0058 37.7274 52.2516 34.3604 52.2516C30.9933 52.2516 27.6592 52.0058 24.5485 51.5284C21.4377 51.051 18.6112 50.3512 16.2304 49.469C13.8495 48.5869 11.9609 47.5396 10.6724 46.387C9.38389 45.2343 8.7207 43.999 8.7207 42.7514C8.7207 41.5038 9.38389 40.2685 10.6724 39.1158C11.9609 37.9632 13.8495 36.9159 16.2304 36.0338C18.6112 35.1516 21.4377 34.4518 24.5485 33.9744C27.6592 33.497 30.9933 33.2512 34.3604 33.2512C37.7274 33.2512 41.0615 33.497 44.1722 33.9744C47.283 34.4518 50.1095 35.1516 52.4903 36.0338C54.8712 36.9159 56.7598 37.9632 58.0483 39.1158C59.3368 40.2685 60 41.5038 60 42.7514Z" fill="url(#paint0_radial_73_198)"/>
<path fill-rule="evenodd" clip-rule="evenodd" d="M18.6378 31.1861C18.6505 31.9362 18.8934 33.3947 19.2506 34.5388C20.0071 36.9507 21.2888 39.1861 23.0738 41.1553C24.9047 43.1756 27.1564 44.8018 29.7591 45.955C32.4977 47.1668 35.4628 47.7858 38.5397 47.781C41.6165 47.7745 44.5814 47.1453 47.3188 45.9247C49.9204 44.7601 52.1721 43.1301 54.0017 41.1045C55.7828 39.1275 57.0619 36.8885 57.8184 34.4753C58.2012 33.2547 58.4388 32.0176 58.538 30.7741C58.6334 29.5523 58.5927 28.324 58.4186 27.1009C58.0804 24.7132 57.2527 22.4742 55.9826 20.4309C54.8177 18.5556 53.3188 16.9129 51.5374 15.5308L51.54 15.5283L33.5519 1.71408C33.5366 1.70136 33.5226 1.68864 33.506 1.67721C32.3236 0.771942 30.3388 0.77448 29.042 1.68356C27.7273 2.60154 27.6217 4.03706 28.7877 4.99829C31.2589 6.94919 33.7204 8.98921 36.2053 10.9399L13.374 10.9246C10.7793 10.9246 9.25272 12.1577 8.93125 13.9603C8.64757 15.551 9.90415 17.5221 12.1573 17.5221C16.0032 17.5271 19.8868 17.5132 23.7464 17.5055L3.06138 32.8084C3.03468 32.8288 3.00798 32.8466 2.98128 32.8669C1.03343 34.3607 0.401528 36.8465 1.62847 38.4193C2.87702 40.0187 5.52797 40.02 7.50125 38.4271L18.7891 29.1886C18.7891 29.1886 18.6264 30.4372 18.6378 31.1861Z" fill="#F57900" stroke="#CE5C00"/>
<path d="M51.0949 27.8125C51.0949 30.7449 49.7929 33.5573 47.4754 35.6308C45.1579 37.7044 42.0147 38.8693 38.7373 38.8693C35.4598 38.8693 32.3166 37.7044 29.9991 35.6308C27.6816 33.5573 26.3796 30.7449 26.3796 27.8125C26.3796 24.88 27.6816 22.0676 29.9991 19.9941C32.3166 17.9205 35.4598 16.7556 38.7373 16.7556C42.0147 16.7556 45.1579 17.9205 47.4754 19.9941C49.7929 22.0676 51.0949 24.88 51.0949 27.8125Z" fill="url(#paint1_linear_73_198)"/>
<path opacity="0.485714" fill-rule="evenodd" clip-rule="evenodd" d="M31.3186 2.48169C30.7919 2.48241 30.2537 2.6452 29.8938 2.89746L29.8911 2.90024C29.5266 3.15475 29.4529 3.37894 29.442 3.49897C29.4312 3.61899 29.4248 3.71656 29.6887 3.93415C29.7134 3.95461 29.7375 3.97587 29.7608 3.9979C29.9224 4.12932 37.1811 10.0323 37.1811 10.0323C37.6671 10.4278 37.8521 11.0862 37.6431 11.677C37.4342 12.2678 36.8764 12.1749 36.2497 12.1769C28.9208 12.2434 13.343 12.2018 13.343 12.2018C12.1034 12.2027 10.2896 12.8741 10.2034 14.2646C10.1207 15.5979 11.3862 16.1605 12.2564 16.1605L23.7431 16.1384C24.3783 16.1376 24.9435 16.4265 25.1485 17.0278C25.3535 17.6291 25.1529 17.7192 24.6495 18.1067L3.96576 33.984C3.96391 33.9859 3.96206 33.9877 3.96021 33.9895C3.87691 34.053 3.84994 34.0705 3.87983 34.0478C3.15961 34.6001 2.71417 35.3235 2.55487 35.9687C2.39558 36.6138 2.49426 37.1167 2.7988 37.5071C3.42166 38.305 5.10041 38.4594 6.56854 37.2742L17.8501 28.0411C18.3209 27.6564 18.9788 27.5981 19.51 27.8939C20.0412 28.1898 20.338 28.7799 20.2588 29.3827C20.2588 29.3827 20.1125 30.6576 20.1202 31.165C20.3704 34.5945 22.0042 37.5585 24.1727 40.1597C27.9161 44.2869 33.0824 46.0866 38.5365 46.2994C44.0044 46.2423 49.1846 44.1369 52.9004 40.1098C59.6892 31.8031 58.0278 22.726 50.6274 16.7042C44.7785 11.9448 38.6428 7.49289 32.6491 2.88915C32.6435 2.88458 32.638 2.87995 32.6325 2.8753C32.6231 2.86893 32.6139 2.86246 32.6047 2.85589C32.3309 2.64621 31.8442 2.48096 31.3186 2.48169Z" stroke="url(#paint2_linear_73_198)"/>
<path fill-rule="evenodd" clip-rule="evenodd" d="M31.5917 26.8422C31.6886 25.0716 32.5534 23.5087 33.8534 22.4022C35.1328 21.3145 36.8508 20.6504 38.7274 20.6504C40.6028 20.6504 42.3208 21.3145 43.5999 22.4022C44.9013 23.5087 45.7651 25.0705 45.8631 26.8411C45.9635 28.6633 45.2351 30.3553 43.9584 31.6085C42.6569 32.8851 40.8012 33.6865 38.7274 33.6865C36.6524 33.6865 34.7967 32.8851 33.4953 31.6085C32.2173 30.3553 31.4914 28.6633 31.5917 26.8422Z" fill="#3465A4"/>
<path opacity="0.52" fill-rule="evenodd" clip-rule="evenodd" d="M31.3386 2.4878C30.812 2.48851 30.2351 2.64203 29.8752 2.8943C29.5107 3.1488 29.4389 3.38403 29.428 3.50405C29.4172 3.62407 29.408 3.73362 29.6719 3.9512C29.6966 3.97167 29.7299 3.96982 29.7532 3.99185C29.9149 4.12327 37.1922 10.0487 37.1922 10.0487C37.6783 10.4443 37.8483 11.0839 37.6394 11.6747C37.4304 12.2655 36.8839 12.1605 36.2573 12.1625C28.9283 12.2291 13.3306 12.2032 13.3306 12.2032C12.091 12.204 10.2868 12.8858 10.2005 14.2763C10.1178 15.6096 11.4035 16.1462 12.2737 16.1462H23.737C24.3723 16.1455 24.9548 16.4393 25.1598 17.0405C25.3648 17.6418 25.1347 17.71 24.6313 18.0975L3.98105 33.9917C3.9792 33.9935 3.94225 33.9898 3.9404 33.9917C3.8571 34.0551 3.86986 34.0551 3.89975 34.0323C3.17952 34.5847 2.71759 35.3383 2.55829 35.9835C2.399 36.6287 2.49766 37.0972 2.80219 37.4876C3.42506 38.2855 5.11452 38.4695 6.58266 37.2843L17.8427 28.0567C18.3136 27.672 18.9782 27.5983 19.5094 27.8941C20.0406 28.19 20.3203 28.7954 20.2411 29.3982C20.2411 29.3982 20.1114 30.6387 20.1192 31.1462C20.2427 32.8395 20.7066 34.4266 21.4057 35.9126C24.8182 41.889 33.8862 19.8686 55.2409 21.9999C54.138 20.0648 52.5922 18.2978 50.6474 16.7153C44.7985 11.9559 38.6331 7.49804 32.6394 2.8943C32.6301 2.88793 32.6079 2.86022 32.5988 2.85365C32.3249 2.64397 31.8642 2.48707 31.3386 2.4878Z" fill="url(#paint3_radial_73_198)"/>
<defs>
<radialGradient id="paint0_radial_73_198" cx="0" cy="0" r="1" gradientUnits="userSpaceOnUse" gradientTransform="translate(34.3604 42.7514) scale(25.6397 9.50017)">
<stop/>
<stop offset="1" stop-opacity="0"/>
</radialGradient>
<linearGradient id="paint1_linear_73_198" x1="38.7373" y1="20.3047" x2="37.2732" y2="37.2259" gradientUnits="userSpaceOnUse">
<stop stop-color="white"/>
<stop offset="1" stop-color="#DADADA"/>
</linearGradient>
<linearGradient id="paint2_linear_73_198" x1="43.5416" y1="46.9498" x2="43.9385" y2="-10.8284" gradientUnits="userSpaceOnUse">
<stop stop-color="white"/>
<stop offset="1" stop-color="white" stop-opacity="0"/>
</linearGradient>
<radialGradient id="paint3_radial_73_198" cx="0" cy="0" r="1" gradientUnits="userSpaceOnUse" gradientTransform="translate(33.5773 19.5405) scale(43.452 33.4464)">
<stop stop-color="white"/>
<stop offset="1" stop-color="white" stop-opacity="0"/>
</radialGradient>
</defs>
</svg>
