<svg width="50" height="50" viewBox="0 0 50 50" fill="none" xmlns="http://www.w3.org/2000/svg">
<rect width="50" height="50" fill="#1E1E1E"/>
<path d="M25 24.8842C25 23.4845 25.5561 22.142 26.5458 21.1523C27.5356 20.1625 28.878 19.6064 30.2778 19.6064C31.6775 19.6064 33.02 20.1625 34.0097 21.1523C34.9995 22.142 35.5556 23.4845 35.5556 24.8842C35.5556 26.284 34.9995 27.6264 34.0097 28.6162C33.02 29.606 31.6775 30.162 30.2778 30.162C28.878 30.162 27.5356 29.606 26.5458 28.6162C25.5561 27.6264 25 26.284 25 24.8842Z" fill="#1ABCFE"/>
<path d="M14.4443 35.4399C14.4443 34.0401 15.0004 32.6977 15.9902 31.7079C16.9799 30.7182 18.3224 30.1621 19.7221 30.1621H24.9999V35.4399C24.9999 36.8396 24.4438 38.1821 23.4541 39.1718C22.4643 40.1616 21.1219 40.7177 19.7221 40.7177C18.3224 40.7177 16.9799 40.1616 15.9902 39.1718C15.0004 38.1821 14.4443 36.8396 14.4443 35.4399V35.4399Z" fill="#0ACF83"/>
<path d="M25 9.05078V19.6063H30.2778C31.6775 19.6063 33.02 19.0503 34.0097 18.0605C34.9995 17.0707 35.5556 15.7283 35.5556 14.3286C35.5556 12.9288 34.9995 11.5864 34.0097 10.5966C33.02 9.60683 31.6775 9.05078 30.2778 9.05078H25Z" fill="#FF7262"/>
<path d="M14.4443 14.3286C14.4443 15.7283 15.0004 17.0707 15.9902 18.0605C16.9799 19.0503 18.3224 19.6063 19.7221 19.6063H24.9999V9.05078H19.7221C18.3224 9.05078 16.9799 9.60683 15.9902 10.5966C15.0004 11.5864 14.4443 12.9288 14.4443 14.3286V14.3286Z" fill="#F24E1E"/>
<path d="M14.4443 24.8842C14.4443 26.284 15.0004 27.6264 15.9902 28.6162C16.9799 29.606 18.3224 30.162 19.7221 30.162H24.9999V19.6064H19.7221C18.3224 19.6064 16.9799 20.1625 15.9902 21.1523C15.0004 22.142 14.4443 23.4845 14.4443 24.8842V24.8842Z" fill="#A259FF"/>
</svg>
