<svg width="50" height="49" viewBox="0 0 50 49" fill="none" xmlns="http://www.w3.org/2000/svg">
<path d="M8.85417 0.00146484H41.1458C46.0417 0.00146484 50 3.96832 50 8.87469V39.9832C50 44.8896 46.0417 48.8564 41.1458 48.8564H8.85417C3.95833 48.8564 0 44.8896 0 39.9832V8.87469C0 3.96832 3.95833 0.00146484 8.85417 0.00146484Z" fill="#330000"/>
<path d="M24.1666 29.2308H16.4166L14.8333 34.1372C14.7916 34.3251 14.625 34.4504 14.4375 34.4295H10.5208C10.2916 34.4295 10.2291 34.3042 10.2916 34.0537L17 14.6996C17.0625 14.4908 17.125 14.2612 17.2083 14.0106C17.2916 13.5722 17.3333 13.1129 17.3333 12.6536C17.3125 12.5492 17.3958 12.4448 17.5 12.4239H22.8958C23.0625 12.4239 23.1458 12.4865 23.1666 12.5909L30.7708 34.0955C30.8333 34.3251 30.7708 34.4295 30.5625 34.4295H26.2083C26.0625 34.4504 25.9166 34.346 25.875 34.1999L24.1666 29.2308ZM17.625 24.9926H22.9166C22.7916 24.5541 22.625 24.0322 22.4375 23.4893C22.25 22.9256 22.0625 22.3202 21.875 21.6938C21.6666 21.0466 21.4791 20.4202 21.2708 19.773C21.0625 19.1258 20.875 18.5203 20.7083 17.9149C20.5416 17.3303 20.3958 16.7874 20.25 16.2864H20.2083C20.0208 17.1841 19.7916 18.0819 19.5 18.9797C19.1875 19.9818 18.875 21.0257 18.5416 22.0696C18.25 23.1344 17.9375 24.1157 17.625 24.9926ZM35.4166 16.0776C34.7291 16.0985 34.0625 15.827 33.5625 15.3468C33.0833 14.8249 32.8333 14.1359 32.8541 13.4261C32.8333 12.7162 33.1041 12.0481 33.6041 11.5679C34.1041 11.0877 34.7708 10.8372 35.4583 10.8372C36.2708 10.8372 36.8958 11.0877 37.3541 11.5679C37.8125 12.069 38.0625 12.7371 38.0416 13.4261C38.0625 14.1359 37.8125 14.8249 37.3125 15.3468C36.8333 15.8479 36.125 16.1193 35.4166 16.0776ZM33.0833 34.1999V18.1236C33.0833 17.9149 33.1666 17.8314 33.3541 17.8314H37.4791C37.6666 17.8314 37.75 17.9357 37.75 18.1236V34.1999C37.75 34.4295 37.6666 34.5339 37.4791 34.5339H33.3958C33.1875 34.5339 33.0833 34.4086 33.0833 34.1999Z" fill="#FF9A00"/>
</svg>
