<svg width="50" height="50" viewBox="0 0 50 50" fill="none" xmlns="http://www.w3.org/2000/svg">
<path d="M8.85417 0.251465H41.1458C46.0417 0.251465 50 4.2098 50 9.10563V40.1473C50 45.0431 46.0417 49.0015 41.1458 49.0015H8.85417C3.95833 49.0015 0 45.0431 0 40.1473V9.10563C0 4.2098 3.95833 0.251465 8.85417 0.251465Z" fill="#001E36"/>
<path d="M11.25 34.4391V13.0016C11.25 12.8558 11.3125 12.7725 11.4583 12.7725C11.8125 12.7725 12.1458 12.7725 12.625 12.7516C13.125 12.7308 13.6458 12.7308 14.2083 12.71C14.7708 12.6891 15.375 12.6891 16.0208 12.6683C16.6667 12.6475 17.2917 12.6475 17.9167 12.6475C19.625 12.6475 21.0417 12.8558 22.2083 13.2933C23.25 13.6475 24.2083 14.2308 25 15.0016C25.6667 15.6683 26.1875 16.4808 26.5208 17.3766C26.8333 18.2516 27 19.1475 27 20.085C27 21.8766 26.5833 23.3558 25.75 24.5225C24.9167 25.6891 23.75 26.5641 22.3958 27.0641C20.9792 27.585 19.4167 27.7725 17.7083 27.7725C17.2083 27.7725 16.875 27.7725 16.6667 27.7516C16.4583 27.7308 16.1667 27.7308 15.7708 27.7308V34.4183C15.7917 34.5641 15.6875 34.6891 15.5417 34.71C15.5208 34.71 15.5 34.71 15.4583 34.71H11.5C11.3333 34.71 11.25 34.6266 11.25 34.4391ZM15.7917 16.7933V23.7933C16.0833 23.8141 16.3542 23.835 16.6042 23.835H17.7083C18.5208 23.835 19.3333 23.71 20.1042 23.46C20.7708 23.2725 21.3542 22.8766 21.8125 22.3558C22.25 21.835 22.4583 21.1266 22.4583 20.21C22.4792 19.5641 22.3125 18.9183 21.9792 18.3558C21.625 17.8141 21.125 17.3975 20.5208 17.1683C19.75 16.8558 18.9167 16.7308 18.0625 16.7516C17.5208 16.7516 17.0417 16.7516 16.6458 16.7725C16.2292 16.7516 15.9375 16.7725 15.7917 16.7933Z" fill="#31A8FF"/>
<path d="M40 22.5223C39.375 22.189 38.7084 21.9598 38 21.814C37.2292 21.6473 36.4584 21.5431 35.6667 21.5431C35.25 21.5223 34.8125 21.5848 34.4167 21.689C34.1459 21.7515 33.9167 21.8973 33.7709 22.1056C33.6667 22.2723 33.6042 22.4806 33.6042 22.6681C33.6042 22.8556 33.6876 23.0431 33.8126 23.2098C34.0001 23.439 34.25 23.6265 34.5209 23.7723C35 24.0223 35.5001 24.2515 36.0001 24.4598C37.1251 24.8348 38.2084 25.3556 39.2084 25.9806C39.8959 26.4181 40.4584 27.0015 40.8542 27.7098C41.1876 28.3765 41.3542 29.1056 41.3334 29.8556C41.3542 30.8348 41.0625 31.814 40.5209 32.6265C39.9375 33.4598 39.125 34.1056 38.1875 34.4806C37.1667 34.9181 35.9167 35.1473 34.4167 35.1473C33.4584 35.1473 32.5209 35.064 31.5834 34.8765C30.8542 34.7515 30.125 34.5223 29.4584 34.2098C29.3125 34.1265 29.2084 33.9806 29.2292 33.814V30.189C29.2292 30.1265 29.25 30.0431 29.3125 30.0015C29.375 29.9598 29.4376 29.9806 29.5001 30.0223C30.3126 30.5015 31.1667 30.8348 32.0834 31.0431C32.875 31.2515 33.7084 31.3556 34.5417 31.3556C35.3334 31.3556 35.8959 31.2515 36.2709 31.064C36.6042 30.9181 36.8334 30.564 36.8334 30.189C36.8334 29.8973 36.6667 29.6265 36.3334 29.3556C36 29.0848 35.3126 28.7723 34.2917 28.3765C33.2292 28.0015 32.25 27.5015 31.3334 26.8765C30.6875 26.4181 30.1459 25.814 29.7501 25.1056C29.4167 24.439 29.25 23.7098 29.2709 22.9806C29.2709 22.0848 29.5209 21.2306 29.9792 20.4598C30.5 19.6265 31.2709 18.9598 32.1667 18.5431C33.1459 18.0431 34.3751 17.814 35.8542 17.814C36.7084 17.814 37.5834 17.8765 38.4375 18.0015C39.0625 18.0848 39.6667 18.2515 40.2292 18.4806C40.3126 18.5015 40.3959 18.5848 40.4376 18.6681C40.4584 18.7515 40.4792 18.8348 40.4792 18.9181V22.314C40.4792 22.3973 40.4375 22.4806 40.375 22.5223C40.1875 22.564 40.0834 22.564 40 22.5223Z" fill="#31A8FF"/>
</svg>
